<?xml version="1.0" encoding="UTF-8"?>
<svg version="1.1" xmlns="http://www.w3.org/2000/svg" width="1546" height="794">
<path d="M0 0 C23.80179438 9.19919715 36.96729031 45.81336342 47 67 C49.475 72.94 49.475 72.94 52 79 C78.07 79 104.14 79 131 79 C133.97 72.4 136.94 65.8 140 59 C161.63270719 12.93089233 161.63270719 12.93089233 179 1 C180.32551312 0.6368143 181.65859278 0.29919153 183 0 C182.98952637 1.09425293 182.97905273 2.18850586 182.96826172 3.31591797 C182.31278901 78.8661595 185.78495332 169.30858299 241.1640625 227.2265625 C250.30922662 236.1701803 259.62174433 243.10745468 271 249 C271.62849854 249.3307251 272.25699707 249.6614502 272.90454102 250.00219727 C294.62880088 261.21411784 326.2357225 267.67609427 349.97290039 260.30517578 C353.40505339 259.04772553 356.69496881 257.55631683 360 256 C361.58631999 255.30259205 363.17360283 254.60737108 364.76171875 253.9140625 C379.31424007 247.4217323 391.9082189 239.41811311 404 229 C404.75667969 228.38898438 405.51335937 227.77796875 406.29296875 227.1484375 C423.38680776 212.92878381 434.08116301 192.41519862 439 171 C439.24363281 169.95199219 439.48726562 168.90398437 439.73828125 167.82421875 C445.73469522 136.37363937 436.40429566 104.6455895 424 76 C423.69368652 75.28424805 423.38737305 74.56849609 423.07177734 73.83105469 C418.58078028 63.45153798 413.09647854 53.78886506 407.21606445 44.13330078 C406.39755005 42.78534424 406.39755005 42.78534424 405.5625 41.41015625 C405.06878906 40.60715088 404.57507812 39.80414551 404.06640625 38.97680664 C403 37 403 37 403 35 C408.89997205 35.5828475 414.23025896 36.78350149 419.87890625 38.5546875 C420.71555817 38.81179001 421.55221008 39.06889252 422.41421509 39.33378601 C425.132907 40.17273812 427.84791677 41.0228541 430.5625 41.875 C431.4972818 42.16655975 432.4320636 42.45811951 433.39517212 42.7585144 C450.42809065 48.07677209 467.27918326 53.76380312 484 60 C484.61820618 60.22991638 485.23641235 60.45983276 485.87335205 60.69671631 C528.21741066 76.46063201 570.4613429 94.31957082 609.74707031 116.72509766 C611.95078448 117.9721496 614.16985779 119.18476014 616.3984375 120.38671875 C636.6759247 131.36079208 656.16197459 143.71948411 675 157 C676.26161386 157.88035867 677.5233279 158.76057379 678.78515625 159.640625 C687.09032907 165.4683993 695.09002952 171.64873803 703 178 C703.98097656 178.78503906 704.96195313 179.57007813 705.97265625 180.37890625 C711.26391387 184.65805271 716.39538492 189.07248849 721.41796875 193.6640625 C722.81832835 194.93095364 724.22470407 196.19183908 725.66088867 197.41796875 C731.49030414 202.4079544 736.94097723 207.75483033 742.36303711 213.17773438 C743.92608734 214.73860327 745.49697365 216.29127888 747.06835938 217.84375 C752.73722038 223.48158392 758.03699392 229.24059024 763.00976562 235.51782227 C765.1180879 238.14727671 767.32683875 240.66591983 769.5625 243.1875 C806.68207321 287.71940608 827.20941078 343.94417172 827.25 401.6875 C827.25101212 402.98432205 827.25101212 402.98432205 827.25204468 404.30734253 C827.2346322 418.39371492 826.57525687 432.11867499 824 446 C823.83902832 446.88751953 823.67805664 447.77503906 823.51220703 448.68945312 C813.91315158 499.69999566 787.67757697 543.96111644 752 581 C751.46874512 581.55316895 750.93749023 582.10633789 750.39013672 582.67626953 C744.16156352 589.1268293 737.82683201 595.20088834 730.78515625 600.7734375 C728.30962552 602.75247329 725.90995813 604.79779999 723.52001953 606.87866211 C706.23635389 621.85588363 686.76975138 634.56364871 667 646 C666.12118164 646.51046875 665.24236328 647.0209375 664.33691406 647.546875 C631.86213031 666.3232444 597.95954038 681.44769732 562.5 693.5625 C561.63590515 693.85841034 560.7718103 694.15432068 559.88153076 694.459198 C529.15994894 704.93181524 529.15994894 704.93181524 524 703 C524.58265625 702.10023438 525.1653125 701.20046875 525.765625 700.2734375 C547.71200849 666.0094646 571.53092995 622.07158843 563.9375 579.8125 C560.39903769 565.37623827 553.0112606 553.7160872 540.5703125 545.52734375 C524.69196945 536.09203656 504.15714816 534.76824682 486.125 534.75 C485.4350293 534.74899292 484.74505859 534.74798584 484.03417969 534.74694824 C473.08556422 534.75774444 462.67821733 535.47981036 452 538 C450.76378906 538.2784375 449.52757812 538.556875 448.25390625 538.84375 C417.35603395 546.42925939 390.62138782 561.94095754 367 583 C366.4647168 583.47356934 365.92943359 583.94713867 365.37792969 584.43505859 C358.02400864 590.95893132 358.02400864 590.95893132 351.375 598.1875 C350.59125 599.115625 349.8075 600.04375 349 601 C348.34 601 347.68 601 347 601 C346.50371094 599.98421875 346.00742188 598.9684375 345.49609375 597.921875 C332.6320092 571.76277502 317.165807 547.32451902 288.25 537.25 C270.53700799 531.43581178 251.20522384 535.58208239 234.875 543.5625 C173.87775881 575.13646581 134.27108669 644.5821744 101.41015625 702.07421875 C98.3457161 707.42719221 95.19859688 712.72624094 92 718 C89.47942508 715.70516202 87.92760874 713.35707585 86.28515625 710.37890625 C85.77025635 709.45392334 85.25535645 708.52894043 84.72485352 707.57592773 C84.17627686 706.58149658 83.6277002 705.58706543 83.0625 704.5625 C60.76070666 664.65747372 35.99770504 624.92642804 4.9609375 591.14453125 C3.17707266 589.19365117 1.46047206 587.20251952 -0.25 585.1875 C-21.08525046 561.43052477 -50.58626753 536.98299305 -83.34765625 534.58984375 C-91.57227153 534.27492858 -99.19901696 535.43329725 -107 538 C-108.22203125 538.36544922 -108.22203125 538.36544922 -109.46875 538.73828125 C-134.2303602 547.21993669 -149.85363245 571.79762649 -161 594 C-162.05240077 596.31636385 -163.03508431 598.64510931 -164 601 C-164.66 601 -165.32 601 -166 601 C-167.48046875 599.49609375 -167.48046875 599.49609375 -169.1875 597.4375 C-174.98145355 590.65607593 -181.16561661 584.90026537 -188.12890625 579.31640625 C-189.97110707 577.83011362 -191.79362698 576.31889328 -193.58984375 574.77734375 C-213.79467269 557.55006855 -238.32482094 546.07886271 -263.8125 539.1875 C-264.88540283 538.89504395 -264.88540283 538.89504395 -265.97998047 538.59667969 C-277.92580924 535.54083267 -289.89101708 534.63436848 -302.1875 534.6875 C-303.19805954 534.69023422 -303.19805954 534.69023422 -304.22903442 534.69302368 C-323.58784025 534.7808064 -346.30867269 536.34254679 -362 549 C-362.60972656 549.43828125 -363.21945312 549.8765625 -363.84765625 550.328125 C-374.02137253 558.10934097 -379.74843534 571.44436963 -381.68359375 583.83984375 C-385.96413408 626.59240083 -363.63249267 668.37146577 -341 703 C-344.2596561 704.07296241 -346.24161724 703.91114048 -349.515625 702.953125 C-350.42038574 702.69112305 -351.32514648 702.42912109 -352.25732422 702.15917969 C-353.73869873 701.70913574 -353.73869873 701.70913574 -355.25 701.25 C-356.29559082 700.93708008 -357.34118164 700.62416016 -358.41845703 700.30175781 C-381.81730098 693.18436823 -404.66847132 685.00334354 -427 675 C-428.09038574 674.5138623 -429.18077148 674.02772461 -430.30419922 673.52685547 C-458.43338891 660.9288182 -485.68090928 646.65163804 -511 629 C-511.5868457 628.59185059 -512.17369141 628.18370117 -512.77832031 627.76318359 C-539.55243583 609.06507513 -565.71527073 587.74467344 -586 562 C-586.91795401 560.89235561 -587.83867784 559.78700262 -588.76171875 558.68359375 C-618.34355576 523.05994706 -637.54568954 479.02136998 -643 433 C-643.14139404 431.84504028 -643.14139404 431.84504028 -643.28564453 430.66674805 C-650.7363741 361.17769869 -628.17053309 296.05781092 -585.39501953 241.71777344 C-582.55554771 238.22135696 -579.53845635 234.90293448 -576.44921875 231.625 C-574.55526685 229.59511854 -572.7449 227.541288 -570.94140625 225.43359375 C-566.45506304 220.28651808 -561.6481575 215.46210354 -556.82226562 210.63696289 C-555.26139673 209.07391266 -553.70872112 207.50302635 -552.15625 205.93164062 C-546.48062464 200.22501012 -540.69458626 194.91202435 -534.37841797 189.91088867 C-532.12584946 188.10111103 -529.99378685 186.2134329 -527.875 184.25 C-495.77276867 155.45492571 -456.80541029 132.49362799 -418.77587891 112.46582031 C-416.11730099 111.06194153 -413.46974364 109.63922739 -410.82421875 108.2109375 C-377.8538977 90.52016477 -343.0770274 75.8737005 -308.05218506 62.76824951 C-305.96961477 61.98862508 -303.88837402 61.20551749 -301.80712891 60.42236328 C-283.78810933 53.6600077 -265.62773143 47.46796469 -247.25 41.75 C-246.34059662 41.46528839 -245.43119324 41.18057678 -244.49423218 40.88723755 C-241.8997 40.07787364 -239.30218568 39.27906207 -236.703125 38.484375 C-235.94004532 38.24647751 -235.17696564 38.00858002 -234.39076233 37.76347351 C-229.5900776 36.31590077 -224.99156951 35.49788755 -220 35 C-221.36363435 38.62833609 -222.99680895 41.90318299 -224.94140625 45.25390625 C-248.29559576 85.92397674 -266.43202406 131.55830859 -254.00390625 178.78515625 C-249.70929942 192.91723618 -242.81771862 205.94236247 -233 217 C-232.44957031 217.680625 -231.89914062 218.36125 -231.33203125 219.0625 C-226.55903352 224.86719083 -220.90900958 229.39356041 -215 234 C-214.35417969 234.52335938 -213.70835937 235.04671875 -213.04296875 235.5859375 C-202.19147209 244.14419848 -189.66413751 250.66126832 -177.01855469 256.12304688 C-175.17893125 256.92226403 -173.35777542 257.76365296 -171.5390625 258.609375 C-148.62825155 267.94146733 -118.2951894 262.05883457 -96 253 C-61.90658703 238.52484446 -38.77351682 208.46991838 -24.8359375 174.92578125 C-22.73969666 169.66896211 -20.83127659 164.35429476 -19 159 C-18.69465332 158.10861328 -18.38930664 157.21722656 -18.07470703 156.29882812 C-1.08277159 105.74940781 0.50504415 52.76545903 0 0 Z " fill="#000000" transform="translate(689,37)"/>
</svg>
